<?xml version="1.0" encoding="utf-8"?>
<svg viewBox="114.151 76.322 128 81.5" xmlns="http://www.w3.org/2000/svg">
  <path class="st0" d="M88.4,27.9H76.8v6.5l11.6,6.7V27.9z M34.9,88.4h-2.3v0h-9.3v16.3h20.9V88.4L34.9,88.4L34.9,88.4z M55.9,23.3 L0,51.2h104.7L55.9,23.3z M55.9,44.2c-2.6,0-4.7-2.1-4.7-4.7s2.1-4.7,4.7-4.7c2.6,0,4.7,2.1,4.7,4.7S58.4,44.2,55.9,44.2z M32.6,65.1h-9.3v9.3h9.3V65.1z M23.3,86.1h9.3v-9.3h-9.3V86.1z M62.8,81.5c0-10.3,6.4-18.6,16.3-18.6h14v-9.3H11.6v51.2h9.3 V62.8h25.6v41.9h46.6v-4.7c-7.8,0-14,0-14,0C69.2,100.1,62.8,91.7,62.8,81.5z M34.9,74.5h9.3v-9.3h-9.3V74.5z M34.9,86.1h9.3 v-9.3h-9.3V86.1z M81.5,65.2c-9,0-16.3,7.3-16.3,16.3c0,9,7.3,16.3,16.3,16.3c9,0,16.3-7.3,16.3-16.3 C97.7,72.5,90.5,65.2,81.5,65.2z M87,87.8c-0.4,0.7-0.9,1.4-1.5,1.9c-0.6,0.5-1.4,0.9-2.2,1.1c-0.1,0-0.2,0-0.3,0.1v2.5h-2.3 v-2.2c0,0-0.1,0-0.1,0c-0.7,0-1.3-0.1-1.8-0.2c-0.6-0.1-1-0.2-1.5-0.4c-0.4-0.2-0.8-0.3-1.1-0.5c-0.3-0.2-0.5-0.3-0.6-0.4 c-0.1-0.1-0.2-0.3-0.3-0.5c-0.1-0.2-0.1-0.6-0.1-1c0-0.3,0-0.6,0-0.8c0-0.2,0-0.4,0.1-0.5c0-0.1,0.1-0.2,0.2-0.3 c0.1-0.1,0.2-0.1,0.3-0.1c0.1,0,0.3,0.1,0.6,0.2c0.2,0.2,0.6,0.3,1,0.5c0.4,0.2,0.8,0.4,1.4,0.5c0.5,0.2,1.2,0.2,1.9,0.2 c0.5,0,0.9-0.1,1.2-0.2c0.4-0.1,0.7-0.3,0.9-0.5c0.3-0.2,0.5-0.5,0.6-0.8c0.1-0.3,0.2-0.6,0.2-1c0-0.4-0.1-0.8-0.4-1.1 c-0.2-0.3-0.5-0.6-0.9-0.8c-0.4-0.2-0.8-0.5-1.3-0.7c-0.5-0.2-1-0.4-1.5-0.7c-0.5-0.2-1-0.5-1.5-0.8c-0.5-0.3-0.9-0.6-1.3-1.1 c-0.4-0.4-0.7-0.9-0.9-1.5c-0.2-0.6-0.3-1.2-0.3-2c0-0.9,0.2-1.7,0.5-2.4c0.3-0.7,0.8-1.2,1.4-1.7c0.6-0.4,1.2-0.8,2-1 c0.4-0.1,0.8-0.2,1.2-0.3v-2.4H83v2.4c0.1,0,0.2,0,0.3,0c0.4,0.1,0.9,0.2,1.3,0.3c0.4,0.1,0.7,0.2,1,0.4s0.5,0.3,0.6,0.4 c0.1,0.1,0.2,0.2,0.2,0.2c0,0.1,0.1,0.2,0.1,0.3c0,0.1,0,0.3,0,0.4c0,0.2,0,0.4,0,0.6c0,0.3,0,0.5,0,0.7c0,0.2,0,0.4-0.1,0.5 c0,0.1-0.1,0.2-0.1,0.3c-0.1,0.1-0.1,0.1-0.3,0.1s-0.3-0.1-0.5-0.2c-0.2-0.1-0.5-0.3-0.9-0.4c-0.3-0.2-0.7-0.3-1.2-0.4 c-0.4-0.1-0.9-0.2-1.5-0.2c-0.4,0-0.8,0.1-1.1,0.2c-0.3,0.1-0.6,0.2-0.8,0.4c-0.2,0.2-0.4,0.4-0.5,0.6c-0.1,0.2-0.2,0.5-0.2,0.8 c0,0.4,0.1,0.8,0.3,1.1c0.2,0.3,0.5,0.6,0.9,0.8c0.4,0.2,0.8,0.5,1.3,0.7c0.5,0.2,1,0.4,1.5,0.7c0.5,0.2,1,0.5,1.5,0.8 c0.5,0.3,0.9,0.6,1.3,1.1c0.4,0.4,0.7,0.9,0.9,1.5c0.2,0.6,0.4,1.2,0.4,2C87.6,86.2,87.4,87.1,87,87.8z M99.1,76.8h26.6 c1.3,0,2.3-1,2.3-2.3c0-1.3-1-2.3-2.3-2.3H97.2C98,73.6,98.6,75.1,99.1,76.8z M125.7,79.1H99.5c0.1,0.8,0.2,1.5,0.2,2.3 c0,0.8-0.1,1.6-0.2,2.3h26.1c1.3,0,2.3-1,2.3-2.3C128,80.2,127,79.1,125.7,79.1z M125.7,93.1H95.6c-1.5,1.9-3.4,3.5-5.5,4.7h35.6 c1.3,0,2.3-1,2.3-2.3C128,94.1,127,93.1,125.7,93.1z M125.7,86.1H99.1c-0.4,1.7-1.1,3.2-1.9,4.7h28.5c1.3,0,2.3-1,2.3-2.3 C128,87.2,127,86.1,125.7,86.1z" style="fill: rgb(119, 181, 185);" transform="matrix(1, 0, 0, 1, 114.151482, 53.02169)"/>
</svg>